<?xml version="1.0" encoding="UTF-8"?>
<svg id="Layer_1" data-name="Layer 1" xmlns="http://www.w3.org/2000/svg" viewBox="0 0 512 438.67">
  <defs>
    <style>
      .cls-1 {
        fill: #fff;
      }

      .cls-2 {
        stroke-width: 14px;
      }

      .cls-2, .cls-3 {
        fill: none;
        stroke: #fff;
        stroke-miterlimit: 10;
      }

      .cls-3 {
        stroke-width: 20px;
      }
    </style>
  </defs>
  <rect class="cls-3" x="26.49" y="28.92" width="459.02" height="380.83" rx="15.52" ry="15.52"/>
  <rect class="cls-2" x="180.84" y="177.75" width="249.33" height="172.67" rx="7.33" ry="7.33"/>
  <path class="cls-1" d="M32.84,32.57v90.18h450.22V32.57H32.84ZM76.38,83.49c-6.87,0-12.44-5.57-12.44-12.44s5.57-12.44,12.44-12.44,12.44,5.57,12.44,12.44-5.57,12.44-12.44,12.44ZM116.91,83.49c-6.87,0-12.44-5.57-12.44-12.44s5.57-12.44,12.44-12.44,12.44,5.57,12.44,12.44-5.57,12.44-12.44,12.44ZM158.74,83.49c-6.87,0-12.44-5.57-12.44-12.44s5.57-12.44,12.44-12.44,12.44,5.57,12.44,12.44-5.57,12.44-12.44,12.44Z"/>
  <rect class="cls-1" x="183.84" y="179.33" width="246.33" height="40.01"/>
</svg>
