<?xml version="1.0" encoding="UTF-8"?>
<svg xmlns="http://www.w3.org/2000/svg" viewBox="0 0 512 512">
  <rect x="25.4" y="68.87" width="457.85" height="391.55" fill="#fff" />
  <path fill="#00a9b4"
    d="M159.74,207.14l185.63-.12c10.27,1.38,19.12,10.31,19.94,20.75v151.53c-.88,9.13-6.91,17.03-15.71,19.73-63.07,1.41-126.4.18-189.56.62-10.64-1.04-18.37-10.36-19.14-20.75v-150.7c.93-10.4,8.62-19.04,18.84-21.05ZM166.84,220.97c-11.29,1.83-4.86,19.53,4.68,13.94,7.01-4.1,3.31-15.24-4.68-13.94ZM201.48,228.33c0-4.05-3.29-7.34-7.34-7.34s-7.34,3.29-7.34,7.34,3.29,7.34,7.34,7.34,7.34-3.29,7.34-7.34ZM227.08,228.32c0-4.09-3.31-7.4-7.4-7.4s-7.4,3.31-7.4,7.4,3.31,7.4,7.4,7.4,7.4-3.31,7.4-7.4ZM153.79,378.49c.4,4.48,4.14,8.26,8.66,8.66h180.91c4.33.12,9.05-4.91,9.05-9.08v-131.13h-198.76v5.1" />
  <path fill="#0a5c63"
    d="M458.37,36.75l-406.13.26c-22.36,4.4-39.18,23.31-41.2,46.06l-.05,350.82c1.67,22.71,18.59,43.12,41.87,45.39,138.2-.94,276.76,1.73,414.73-1.35,19.25-5.9,32.45-23.19,34.4-43.16V82.14c-1.79-22.84-21.15-42.37-43.63-45.39ZM152.33,80.92c7.4,0,13.4,6,13.4,13.4s-6,13.4-13.4,13.4-13.4-6-13.4-13.4,6-13.4,13.4-13.4ZM106.11,81.05c7.34,0,13.28,5.95,13.28,13.28s-5.95,13.28-13.28,13.28-13.28-5.95-13.28-13.28,5.95-13.28,13.28-13.28ZM56.69,81.02c14.46-2.34,21.16,17.81,8.47,25.24-17.27,10.11-28.9-21.93-8.47-25.24ZM473.76,432.09c0,9.13-10.34,20.12-19.8,19.86H58.15c-9.9-.88-18.07-9.15-18.95-18.95l-.3-276.65v-11.17h434.86v286.89ZM469.51,101.51c0,3.95-3.88,7.15-8.66,7.15h-185.88c-4.78,0-8.66-3.2-8.66-7.15v-14.4c0-3.95,3.88-7.15,8.66-7.15h185.88c4.78,0,8.66,3.2,8.66,7.15v14.4Z" />
</svg>